<?xml version="1.0" encoding="UTF-8" standalone="no"?>
<!-- Created with Inkscape (http://www.inkscape.org/) -->

<svg
   xmlns:dc="http://purl.org/dc/elements/1.1/"
   xmlns:cc="http://creativecommons.org/ns#"
   xmlns:rdf="http://www.w3.org/1999/02/22-rdf-syntax-ns#"
   xmlns:svg="http://www.w3.org/2000/svg"
   xmlns="http://www.w3.org/2000/svg"
   xmlns:sodipodi="http://sodipodi.sourceforge.net/DTD/sodipodi-0.dtd"
   xmlns:inkscape="http://www.inkscape.org/namespaces/inkscape"
   width="66.3255"
   height="71.084358"
   id="svg2"
   version="1.1"
   inkscape:version="0.48.0 r9654"
   sodipodi:docname="Logo_Icon_Empty.svg">
  <defs
     id="defs4" />
  <sodipodi:namedview
     id="base"
     pagecolor="#22157e"
     bordercolor="#666666"
     borderopacity="1.0"
     inkscape:pageopacity="1"
     inkscape:pageshadow="2"
     inkscape:zoom="1.5052344"
     inkscape:cx="124.428"
     inkscape:cy="118.11867"
     inkscape:document-units="px"
     inkscape:current-layer="layer1"
     showgrid="false"
     inkscape:window-width="1440"
     inkscape:window-height="900"
     inkscape:window-x="0"
     inkscape:window-y="11"
     inkscape:window-maximized="0"
     inkscape:snap-grids="true"
     fit-margin-top="0"
     fit-margin-left="0"
     fit-margin-right="0"
     fit-margin-bottom="0" />
  <metadata
     id="metadata7">
    <rdf:RDF>
      <cc:Work
         rdf:about="">
        <dc:format>image/svg+xml</dc:format>
        <dc:type
           rdf:resource="http://purl.org/dc/dcmitype/StillImage" />
        <dc:title></dc:title>
      </cc:Work>
    </rdf:RDF>
  </metadata>
  <g
     inkscape:label="Layer 1"
     inkscape:groupmode="layer"
     id="layer1"
     transform="translate(-291.61973,1774.2715)">
    <text
       xml:space="preserve"
       style="font-size:40px;font-style:normal;font-weight:normal;line-height:125%;letter-spacing:0px;word-spacing:0px;fill:#000000;fill-opacity:1;stroke:none;font-family:Sans"
       x="42.071487"
       y="37.623001"
       id="text3004"
       sodipodi:linespacing="125%"><tspan
         sodipodi:role="line"
         id="tspan3006"
         x="42.071487"
         y="37.623001" /></text>
    <text
       xml:space="preserve"
       style="font-size:144px;font-style:normal;font-variant:normal;font-weight:normal;font-stretch:normal;line-height:125%;letter-spacing:0px;word-spacing:0px;fill:#000000;fill-opacity:1;stroke:none;font-family:ChanticleerRoman;-inkscape-font-specification:ChanticleerRoman"
       x="69.700523"
       y="212.18828"
       id="text3008"
       sodipodi:linespacing="125%"><tspan
         sodipodi:role="line"
         id="tspan3010"
         x="69.700523"
         y="212.18828" /></text>
    <path
       sodipodi:type="arc"
       style="fill:none;stroke:#ffffff;stroke-width:10;stroke-miterlimit:4;stroke-opacity:1;stroke-dasharray:none"
       id="path3263"
       sodipodi:cx="361.99216"
       sodipodi:cy="210.94431"
       sodipodi:rx="25.500006"
       sodipodi:ry="26.039688"
       d="m 387.49216,210.94431 c 0,14.38132 -11.41674,26.03968 -25.5,26.03968 -14.08327,0 -25.50001,-11.65836 -25.50001,-26.03968 0,-14.38133 11.41674,-26.03969 25.50001,-26.03969 14.08326,0 25.5,11.65836 25.5,26.03969 z"
       transform="translate(-37.158735,-1954.1777)" />
    <path
       style="fill:#ffffff;fill-opacity:1;stroke:none"
       d="m 307.47145,-1717.7657 c 0,0 -2.67082,4.3573 -6.29662,6.1059 -3.6258,1.7485 -13.28794,5.0846 -8.01388,7.823 4.96098,2.5759 23.46111,-3.3391 32.43714,-3.3391 -0.008,-3.3868 0.1893,-7.5414 0.1014,-10.451 -3.73898,-0.048 -10.65649,-0.083 -18.22852,-0.1388 z"
       id="path4039"
       inkscape:connector-curvature="0"
       sodipodi:nodetypes="czscccc" />
    <path
       style="fill:#ffffff;fill-opacity:1;stroke:none"
       d="m 342.09352,-1717.8181 c 0,0 2.67082,4.3572 6.29662,6.1058 3.6258,1.7486 13.28794,5.0846 8.01388,7.8231 -4.96098,2.5759 -23.46111,-3.3391 -32.43714,-3.3391 0.008,-3.3868 -0.1893,-7.5415 -0.1014,-10.451 3.73898,-0.048 10.65649,-0.083 18.22852,-0.1388 z"
       id="path4039-8"
       inkscape:connector-curvature="0"
       sodipodi:nodetypes="czscccc" />
  </g>
</svg>
